<svg xmlns="http://www.w3.org/2000/svg" xmlns:xlink="http://www.w3.org/1999/xlink" width="65" height="70" version="1.1" viewBox="0 0 65 70"><title>icon-widget-star-rating</title><desc>Created with Sketch.</desc><defs><linearGradient id="linearGradient-1" x1="42.966%" x2="85.153%" y1="14.059%" y2="110.153%"><stop offset="0%" stop-color="#2CA5C3"/><stop offset="100%" stop-color="#136B90"/></linearGradient><linearGradient id="linearGradient-2" x1="10.934%" x2="73.434%" y1="-27.347%" y2="79.684%"><stop offset="0%" stop-color="#51C8E5"/><stop offset="100%" stop-color="#2897C5"/></linearGradient></defs><g id="Page-1" fill="none" fill-rule="evenodd" stroke="none" stroke-width="1"><g id="instansearch-website" transform="translate(-484.000000, -512.000000)"><g id="icon-widget-star-rating" transform="translate(484.000000, 512.000000)"><g id="widget-bg" transform="translate(0.612763, 0.335471)"><rect id="Rectangle-1-Copy" width="64" height="64" x="0" y="5" fill="url(#linearGradient-1)" rx="4"/><rect id="Rectangle-1" width="64" height="64" x="0" y="0" fill="url(#linearGradient-2)" rx="4"/></g><path id="Shape" fill="#FFF" d="M32.3375261,37.8292852 L25.0853538,41.6419778 L27.15097,43.1427357 L28.5360116,35.0673232 L28.6625329,34.3296477 L28.1265802,33.807223 L22.2594496,28.0881841 L21.4704545,30.5164615 L29.5786296,29.3382747 L30.3192979,29.2306493 L30.6505348,28.5594899 L34.276621,21.2122369 L31.723379,21.2122369 L35.3494652,28.5594899 L35.6807021,29.2306493 L36.4213704,29.3382747 L44.5295455,30.5164615 L43.7405504,28.0881841 L37.8734198,33.807223 L37.3374671,34.3296477 L37.4639884,35.0673232 L38.84903,43.1427357 L40.9146462,41.6419778 L33.6624739,37.8292852 L33,37.481002 L32.3375261,37.8292852 L32.3375261,37.8292852 Z M33.6493267,40.1725712 L32.3506733,40.1725712 L39.4589216,43.9095984 L41.9614928,45.225278 L41.4835443,42.438624 L40.1259896,34.5234732 L39.7246837,35.7585659 L45.4753773,30.153025 L47.5,28.1795057 L44.7020403,27.7729383 L36.7547771,26.6181334 L37.8054098,27.3814627 L34.2512856,20.1800206 L33,17.644639 L31.7487144,20.1800206 L28.1945902,27.3814627 L29.2452229,26.6181334 L21.2979597,27.7729383 L18.5,28.1795057 L20.5246227,30.153025 L26.2753163,35.7585659 L25.8740104,34.5234732 L24.5164557,42.438624 L24.0385072,45.225278 L26.5410784,43.9095984 L33.6493267,40.1725712 L33.6493267,40.1725712 Z"/></g></g></g></svg>