<svg xmlns="http://www.w3.org/2000/svg" xmlns:xlink="http://www.w3.org/1999/xlink" width="65" height="70" version="1.1" viewBox="0 0 65 70"><title>icon-widget-star-rating</title><desc>Created with Sketch.</desc><defs><linearGradient id="linearGradient-1" x1="42.966%" x2="85.153%" y1="14.059%" y2="110.153%"><stop offset="0%" stop-color="#2CA5C3"/><stop offset="100%" stop-color="#136B90"/></linearGradient><linearGradient id="linearGradient-2" x1="10.934%" x2="73.434%" y1="-27.347%" y2="79.684%"><stop offset="0%" stop-color="#51C8E5"/><stop offset="100%" stop-color="#2897C5"/></linearGradient></defs><g id="Page-1" fill="none" fill-rule="evenodd" stroke="none" stroke-width="1"><g id="instansearch-website" transform="translate(-484.000000, -512.000000)"><g id="icon-widget-star-rating" transform="translate(484.000000, 512.000000)"><g id="widget-bg" transform="translate(0.612763, 0.335471)"><rect id="Rectangle-1-Copy" width="64" height="64" x="0" y="5" fill="url(#linearGradient-1)" rx="4"/><rect id="Rectangle-1" width="64" height="64" x="0" y="0" fill="url(#linearGradient-2)" rx="4"/></g><path id="Star-1" fill="#FFF" d="M32.8055545,41.313131 L24.3921277,45.7363312 L25.9989492,36.3678428 L19.1923439,29.7330424 L28.5988411,28.3661984 L32.8055545,19.842466 L37.0122679,28.3661984 L46.418765,29.7330424 L39.6121598,36.3678428 L41.2189813,45.7363312 L32.8055545,41.313131 Z M32.7737486,38.6523957 L27.4611491,41.4453945 L28.4757653,35.5297281 L24.1777821,31.3402299 L30.1174489,30.4771458 L32.7737486,25.0948947 L35.4300483,30.4771458 L41.369715,31.3402299 L37.0717318,35.5297281 L38.086348,41.4453945 L32.7737486,38.6523957 Z"/></g></g></g></svg>